<?xml version="1.0" encoding="utf-8"?>
<!-- Generator: Adobe Illustrator 24.1.3, SVG Export Plug-In . SVG Version: 6.00 Build 0)  -->
<svg version="1.1" id="Layer_1" xmlns="http://www.w3.org/2000/svg" xmlns:xlink="http://www.w3.org/1999/xlink" x="0px" y="0px"
	 viewBox="0 0 32 32" style="enable-background:new 0 0 32 32;" xml:space="preserve">
<style type="text/css">
	.st0{fill:#0050AF;}
</style>
<g id="Shape_3_2_">
	<g>
		<path class="st0" d="M27.3,4.7c-6.2-6.2-16.4-6.2-22.6,0s-6.2,16.4,0,22.6s16.4,6.2,22.6,0C33.6,21.1,33.6,10.9,27.3,4.7z
			 M24.4,16.8c0,0.4-0.4,0.8-0.8,0.8h-6.1v6.1c0,0.4-0.4,0.8-0.8,0.8h-1.6c-0.4,0-0.8-0.4-0.8-0.8v-6.1H8.2c-0.4,0-0.8-0.4-0.8-0.8
			v-1.6c0-0.4,0.4-0.8,0.8-0.8h6.1V8.3c0-0.4,0.4-0.8,0.8-0.8h1.6c0.4,0,0.8,0.4,0.8,0.8v6.1h6.1c0.4,0,0.8,0.4,0.8,0.8
			C24.4,15.2,24.4,16.8,24.4,16.8z"/>
	</g>
</g>
</svg>
