<svg version="1.1" xmlns="http://www.w3.org/2000/svg" xmlns:xlink="http://www.w3.org/1999/xlink" x="0px" y="0px"
	 viewBox="0 0 243.3 62.4" style="enable-background:new 0 0 243.3 62.4;" xml:space="preserve">
<style type="text/css">
	.st0{display:none;}
	.st1{display:inline;fill:#008DFF;}
	.st2{font-family:'Heavitas';}
	.st3{font-size:56.0885px;}
	.st4{display:inline;}
	.st5{fill:#FF88E3;stroke:#FF88E3;stroke-width:0.75;stroke-miterlimit:10;}
	.st6{fill:#008DFF;}
	.st7{fill:#FF88E3;stroke:#FF88E3;stroke-miterlimit:10;}
</style>
<g id="Layer_1_copy">
	<g>
		<path class="st6" d="M20.3,33.7h-4.9c-0.4,0-0.7,0.1-1,0.4c-0.3,0.3-0.4,0.6-0.4,1v8.4c0,0.4-0.1,0.7-0.4,1
			c-0.3,0.3-0.6,0.4-0.9,0.4H4.3c-0.4,0-0.7-0.1-0.9-0.4c-0.3-0.3-0.4-0.6-0.4-1V5.1c0-0.4,0.1-0.7,0.4-1c0.3-0.3,0.6-0.4,1-0.4
			h17.2c2.1,0,4.1,0.4,5.9,1.2c1.9,0.8,3.5,1.9,4.8,3.3c1.4,1.4,2.4,3,3.3,4.8c0.8,1.8,1.2,3.8,1.2,5.9c0,2.1-0.3,4-1,5.9
			c-0.7,1.8-1.7,3.4-3.1,4.7s-3.1,2.4-5.1,3.1C25.4,33.4,23.1,33.7,20.3,33.7z M20.7,14.1h-5.3c-0.4,0-0.7,0.1-1,0.4
			c-0.3,0.3-0.4,0.6-0.4,0.9V22c0,0.4,0.1,0.7,0.4,0.9c0.3,0.3,0.6,0.4,1,0.4h6c1.4,0,2.5-0.5,3.1-1.4c0.7-0.9,1-1.9,1-3.1
			c0-0.6-0.1-1.2-0.3-1.8c-0.2-0.6-0.5-1.1-0.9-1.5c-0.4-0.4-0.9-0.8-1.5-1.1S21.5,14.1,20.7,14.1z"/>
		<path class="st6" d="M77.6,5.1v38.4c0,0.4-0.1,0.7-0.4,1c-0.3,0.3-0.6,0.4-1,0.4h-8.4c-0.4,0-0.7-0.1-1-0.4
			c-0.2-0.3-0.4-0.6-0.4-1v-12c0-0.4-0.1-0.7-0.4-1c-0.3-0.3-0.6-0.4-1-0.4H53.7c-0.4,0-0.7,0.1-1,0.4c-0.2,0.3-0.4,0.6-0.4,1v12
			c0,0.4-0.1,0.7-0.4,1c-0.3,0.3-0.6,0.4-1,0.4h-8.4c-0.4,0-0.7-0.1-1-0.4c-0.2-0.3-0.4-0.6-0.4-1V5.1c0-0.4,0.1-0.7,0.4-1
			c0.2-0.3,0.6-0.4,1-0.4H51c0.4,0,0.7,0.1,1,0.4c0.3,0.3,0.4,0.6,0.4,1v13.2c0,0.4,0.1,0.7,0.4,1c0.2,0.3,0.6,0.4,1,0.4h11.5
			c0.4,0,0.7-0.1,1-0.4c0.3-0.3,0.4-0.6,0.4-1V5.1c0-0.4,0.1-0.7,0.4-1c0.2-0.3,0.6-0.4,1-0.4h8.4c0.4,0,0.7,0.1,1,0.4
			C77.5,4.4,77.6,4.7,77.6,5.1z"/>
		<path class="st6" d="M95.7,44.8h-8.4c-0.4,0-0.7-0.1-1-0.4c-0.3-0.3-0.4-0.6-0.4-1V5.1c0-0.4,0.1-0.7,0.4-1c0.3-0.3,0.6-0.4,1-0.4
			h17.4c2.2,0,4.2,0.4,6,1.1c1.8,0.7,3.4,1.7,4.7,3.1c1.3,1.3,2.3,2.9,3,4.7c0.7,1.8,1.1,3.8,1.1,5.9c0,1.2-0.1,2.4-0.4,3.6
			s-0.7,2.3-1.2,3.3c-0.5,1-1.1,2-1.9,2.8c-0.7,0.8-1.5,1.5-2.4,2.1c-0.3,0.2-0.5,0.5-0.6,0.8c-0.1,0.3,0,0.6,0.2,0.9
			c1.4,1.9,2.9,3.8,4.5,5.8c1.6,2,3,3.8,4.2,5.4c0.2,0.3,0.3,0.6,0.2,1c-0.1,0.4-0.4,0.5-0.7,0.5H111c-0.4,0-0.8-0.1-1.2-0.3
			c-0.4-0.2-0.8-0.5-1-0.8c-1.2-1.6-2.4-3.2-3.5-4.8c-1.2-1.6-2.3-3.2-3.5-4.9c-0.2-0.3-0.5-0.6-0.9-0.8c-0.4-0.2-0.8-0.3-1.2-0.3
			h-1.2c-0.4,0-0.7,0.1-0.9,0.4c-0.3,0.3-0.4,0.6-0.4,1v9.1c0,0.4-0.1,0.7-0.4,1C96.4,44.7,96.1,44.8,95.7,44.8z M98.4,22.7h5.9
			c0.4,0,0.9-0.1,1.4-0.3c0.5-0.2,0.9-0.4,1.3-0.8c0.4-0.4,0.7-0.8,1-1.3c0.3-0.5,0.4-1.1,0.4-1.9c0-0.4-0.1-0.8-0.2-1.3
			c-0.1-0.5-0.4-1-0.7-1.5c-0.3-0.5-0.7-0.9-1.3-1.2c-0.5-0.3-1.2-0.5-2-0.5h-5.9c-0.4,0-0.7,0.1-0.9,0.4c-0.3,0.3-0.4,0.6-0.4,1
			v5.9c0,0.4,0.1,0.7,0.4,1C97.7,22.6,98.1,22.7,98.4,22.7z"/>
		<path class="st6" d="M139.3,5c0.1-0.3,0.4-0.6,0.8-0.9c0.4-0.2,0.7-0.4,1.1-0.4h7.9c0.4,0,0.7,0.1,1.1,0.4
			c0.4,0.2,0.6,0.5,0.8,0.9l16.4,38.1c0.1,0.3,0.1,0.7-0.1,1.1c-0.2,0.4-0.6,0.6-1.2,0.6h-9.6c-0.4,0-0.8-0.1-1.2-0.4
			s-0.6-0.5-0.8-0.9l-1.5-3.4c-0.2-0.3-0.5-0.6-0.8-0.9c-0.4-0.2-0.7-0.4-1.1-0.4h-11.8c-0.4,0-0.8,0.1-1.2,0.4
			c-0.4,0.2-0.6,0.5-0.8,0.9l-1.6,3.4c-0.2,0.3-0.4,0.6-0.8,0.9s-0.7,0.4-1.1,0.4h-9.6c-0.2,0-0.4,0-0.6-0.1
			c-0.2-0.1-0.4-0.2-0.5-0.3c-0.1-0.1-0.2-0.3-0.3-0.6c0-0.2,0-0.5,0.2-0.8L139.3,5z M142.6,29.4h5c0.4,0,0.6-0.1,0.8-0.4
			c0.2-0.2,0.2-0.5,0-0.9c-0.4-0.9-0.8-2-1.3-3.3c-0.5-1.3-1-2.4-1.5-3.5c-0.1-0.3-0.3-0.5-0.5-0.5c-0.2,0-0.4,0.2-0.5,0.5l-2.8,6.8
			c-0.2,0.3-0.2,0.6,0,0.9C141.9,29.3,142.2,29.4,142.6,29.4z"/>
		<path class="st6" d="M174.5,30.7c2,1.3,4,2.3,6,3.1c2,0.7,3.8,1.1,5.6,1.1c1.6,0,2.9-0.2,3.8-0.7s1.3-1.2,1.3-2.1
			c0-0.5-0.2-0.9-0.6-1.2c-0.4-0.3-0.9-0.5-1.5-0.7c-0.6-0.2-1.3-0.3-2.2-0.4c-0.8-0.1-1.7-0.3-2.5-0.4c-0.8-0.1-1.8-0.3-2.9-0.5
			c-1.1-0.2-2.2-0.5-3.4-0.9s-2.3-0.9-3.4-1.5c-1.1-0.6-2.2-1.4-3.1-2.3c-0.9-0.9-1.6-2-2.2-3.3c-0.5-1.3-0.8-2.8-0.8-4.6
			c0-2.6,0.5-4.7,1.5-6.4c1-1.7,2.3-3,3.8-4c1.6-1,3.3-1.7,5.2-2.1c1.9-0.4,3.8-0.6,5.6-0.6c3.1,0,6,0.5,8.4,1.4
			c2.5,0.9,4.9,2.3,7.2,4c0.3,0.3,0.5,0.6,0.5,1s-0.1,0.7-0.3,1l-4.4,6.2c-0.2,0.3-0.5,0.5-0.9,0.6c-0.4,0.1-0.7,0-1-0.2
			c-1.9-1.2-3.7-2-5.3-2.6s-3.2-0.8-4.5-0.8c-0.4,0-0.9,0-1.4,0c-0.5,0-1.1,0.1-1.5,0.2c-0.5,0.1-0.9,0.3-1.2,0.6
			c-0.3,0.3-0.5,0.7-0.5,1.2c0,0.5,0.4,1,1.2,1.4c0.8,0.4,1.7,0.8,2.7,1.1c1,0.3,2,0.5,2.9,0.7c0.9,0.2,1.5,0.3,1.8,0.3
			c1.3,0.3,2.8,0.6,4.4,1.2c1.6,0.5,3.1,1.3,4.5,2.2c1.4,1,2.6,2.3,3.5,3.9c1,1.6,1.4,3.6,1.4,6c0,2.2-0.4,4.2-1.2,5.8
			c-0.8,1.6-1.9,3-3.3,4s-3.1,1.8-5,2.3s-4.1,0.8-6.5,0.8c-1.9,0-3.8-0.2-5.4-0.5c-1.7-0.3-3.3-0.8-4.7-1.3c-1.5-0.6-2.8-1.2-4.1-2
			s-2.4-1.6-3.4-2.4c-0.3-0.2-0.5-0.5-0.5-0.9s0.1-0.7,0.3-1l4.3-6.2c0.2-0.3,0.5-0.5,0.9-0.6C173.9,30.5,174.2,30.5,174.5,30.7z"/>
		<path class="st6" d="M219.1,15.4v2.4c0,0.4,0.1,0.7,0.4,1s0.6,0.4,1,0.4h15.2c0.4,0,0.7,0.1,1,0.4c0.3,0.3,0.4,0.6,0.4,1v7.7
			c0,0.4-0.1,0.7-0.4,1c-0.3,0.3-0.6,0.4-1,0.4h-15.2c-0.4,0-0.7,0.1-1,0.4s-0.4,0.6-0.4,1V33c0,0.4,0.1,0.7,0.4,1
			c0.3,0.3,0.6,0.4,1,0.4h17.4c0.4,0,0.7,0.1,1,0.4c0.3,0.3,0.4,0.6,0.4,1v7.7c0,0.4-0.1,0.7-0.4,1c-0.3,0.3-0.6,0.4-1,0.4h-28.5
			c-0.4,0-0.7-0.1-1-0.4c-0.3-0.3-0.4-0.6-0.4-1V5.1c0-0.4,0.1-0.7,0.4-1s0.6-0.4,1-0.4h28.5c0.4,0,0.7,0.1,1,0.4
			c0.3,0.3,0.4,0.6,0.4,1v7.6c0,0.4-0.1,0.7-0.4,1c-0.3,0.3-0.6,0.4-1,0.4h-17.4c-0.4,0-0.7,0.1-1,0.4S219.1,15,219.1,15.4z"/>
	</g>
	<g>
		<path class="st7" d="M54.8,51.4c-1.2,0.8-2.7,1.7-4.4,2.7c-1.7,1-3.5,2-5.4,2.9c-1.9,0.9-3.9,1.7-5.9,2.3c-2,0.6-4,0.9-5.9,0.9
			c-1.7,0-2.9-0.2-3.6-0.6c-0.7-0.4-1-1-1-1.9c0-0.6,0.5-1.5,1.5-2.7c1-1.3,2.1-2.6,3.3-4c1.2-1.4,2.3-2.7,3.3-3.9
			c1-1.2,1.5-2.1,1.5-2.6c0-0.3-0.2-0.5-0.6-0.5c-1.1,0.4-2.4,0.9-3.8,1.6c-1.4,0.7-2.8,1.4-4.2,2.2c-1.4,0.8-2.7,1.6-3.8,2.4
			c-1.2,0.8-2.1,1.4-2.7,1.9c-0.6,0.5-1.2,1.1-1.8,1.8c-0.6,0.7-1.2,1.4-1.8,2.1c-0.6,0.7-1.1,1.2-1.7,1.7c-0.6,0.5-1.1,0.7-1.5,0.7
			c-0.4,0-0.8-0.1-1.2-0.4c-0.3-0.3-0.5-0.5-0.5-0.8c0-0.2,0.1-0.4,0.4-0.8c0.3-0.4,0.7-0.9,1.4-1.4c1.1-0.9,2.1-1.9,3.1-2.9
			c0.9-1,1.7-2,2.3-2.8c0.7-0.9,1.1-1.6,1.5-2.2c0.3-0.6,0.5-1,0.5-1.1c0-0.4-0.2-0.6-0.5-0.6c-0.5,0-1.4,0.3-2.7,1
			c-1.3,0.6-2.6,1.4-4.1,2.3c-1.5,0.9-2.9,1.9-4.4,2.9c-1.4,1-2.6,1.9-3.6,2.7c-1.2,1.1-2.3,2-3.1,2.8c-0.9,0.8-1.5,1.2-1.9,1.2
			c-0.7,0-1.1-0.2-1.2-0.5c-0.1-0.4-0.2-0.7-0.2-1.1c0-0.4,0.2-0.7,0.5-1c2.3-2.2,4.6-4.4,6.9-6.7c2.3-2.3,4.5-4.6,6.8-6.8
			c0.4-0.5,0.9-0.7,1.4-0.7c0.4,0,0.8,0.1,1.2,0.4c0.3,0.3,0.5,0.5,0.5,0.8c-0.6,1-1.6,2.3-3.1,3.7c-1.5,1.5-2.8,2.8-3.9,4
			c3.5-2.3,6.4-4.1,8.7-5.3c2.3-1.2,4.2-1.8,5.7-1.8c1,0,1.4,0.4,1.4,1.1c0,0.5-0.4,1.3-1.2,2.3c-0.8,1-1.5,1.9-2.1,2.6
			c-0.2,0.2-0.2,0.3-0.1,0.3c0.1,0,0.3-0.1,0.5-0.2c1-0.7,2.2-1.5,3.6-2.2c1.3-0.8,2.8-1.5,4.3-2.2c1.5-0.7,3-1.4,4.5-2
			c1.5-0.6,2.9-1.1,4.2-1.4c1.3,0,1.9,0.4,1.9,1.1c0,0.2,0,0.3-0.1,0.5c-0.1,0.2-0.2,0.3-0.4,0.5c-0.4,0.6-1.2,1.5-2.4,2.7
			c-1.2,1.3-2.4,2.6-3.6,4.1c-1.2,1.4-2.3,2.8-3.2,4.2c-0.9,1.3-1.4,2.4-1.4,3.1c0,1,0.8,1.5,2.5,1.5c1.6,0,3.2-0.3,4.9-0.9
			c1.7-0.6,3.5-1.3,5.2-2.2c1.7-0.9,3.3-1.8,4.8-2.7c1.5-0.9,2.7-1.8,3.8-2.5c0.3-0.3,0.7-0.4,1-0.4C55.4,50.7,55.4,50.9,54.8,51.4z
			"/>
		<path class="st7" d="M96.2,47.5c-2,1.4-4.2,2.9-6.6,4.3c-2.4,1.4-4.8,2.8-7.2,3.9c-2.4,1.2-4.8,2.1-7.2,2.8
			c-2.4,0.7-4.6,1.1-6.6,1.1c-1.7,0-2.9-0.3-3.6-0.8c-0.7-0.5-1-1.1-1-1.9c0-0.7,0.4-1.7,1.1-2.9c0.7-1.2,1.8-2.5,3.3-3.9
			c-1.1,0.9-2.4,1.8-3.9,2.7c-1.5,1-3,1.8-4.6,2.6c-1.6,0.8-3.1,1.4-4.7,2c-1.6,0.5-2.9,0.8-4.2,0.8c-1.8,0-2.7-0.5-2.7-1.6
			c0-1.2,0.8-2.6,2.3-4.4c1.6-1.8,3.7-3.5,6.3-5.1c2.6-1.7,5.7-3.1,9-4.3c3.4-1.2,6.9-1.8,10.5-1.8c0.4-0.5,0.8-0.9,1.2-1.1
			c0.3-0.2,0.7-0.4,1-0.5l3.6-0.6l0.3,0.1c-0.4,0.3-0.8,0.6-1.2,1c-0.4,0.4-0.8,0.8-1.2,1.2c0.4,0,1.1,0,1.9,0.1
			c0.9,0.1,1.5,0.1,2,0.2c0.4,0.1,0.6,0.2,0.6,0.4s-0.1,0.2-0.4,0.2C83.8,42,83,41.9,82,41.9c-1,0-1.8-0.1-2.3-0.1
			c-4,4.1-6.9,7.4-8.8,9.8C69,54,68.1,55.8,68.1,57c0,0.5,0.2,0.8,0.6,1.1c0.4,0.3,1.2,0.5,2.4,0.5c1.4,0,3-0.3,4.9-0.9
			c1.9-0.6,3.9-1.4,6.1-2.4c2.2-1,4.4-2.2,6.7-3.6c2.3-1.4,4.5-2.8,6.6-4.3c0.2-0.2,0.3-0.2,0.5-0.1C96.1,47.2,96.2,47.4,96.2,47.5z
			 M75.9,41.7c-2.9,0-5.8,0.6-8.5,1.8c-2.7,1.2-5.1,2.7-7.1,4.3c-2.1,1.7-3.7,3.3-5,4.9c-1.3,1.6-1.9,2.8-1.9,3.6
			c0,0.4,0.3,0.6,0.8,0.6s1.3-0.2,2.4-0.6c1.1-0.4,2.3-1,3.7-1.6c1.4-0.7,2.8-1.5,4.2-2.4c1.4-0.9,2.8-1.9,4-3
			c1.4-1.2,2.7-2.5,4-3.9c1.3-1.4,2.5-2.6,3.5-3.7L75.9,41.7z"/>
		<path class="st7" d="M122.4,47.7c-1.3,1-2.8,1.9-4.4,2.9c-1.6,1-3.3,1.9-5.1,2.8c-1.7,0.9-3.5,1.7-5.3,2.4
			c-1.8,0.7-3.6,1.3-5.2,1.7c-1.3,0.3-2.5,0.5-3.6,0.6c-1.1,0.1-2.1,0.2-3.1,0.2c-4.8,0-7.1-1.2-7.1-3.5c0-0.9,0.3-1.9,1-2.9
			c1.6-2.4,4-4.5,7-6.4c3-1.9,6.2-3.2,9.7-4.1c1-0.3,1.9-0.4,2.6-0.4c3.2,0,4.8,0.7,4.8,2.2c0,0.8-0.3,1.3-0.9,1.8
			c-0.5,0.3-1.4,0.7-2.6,1.3l-0.4-0.1c0.3-0.4,0.4-0.8,0.4-1.3c0-0.5-0.3-1-1-1.4c-0.6-0.5-1.7-0.7-3.1-0.7c-1.6,0-3.2,0.3-4.7,1
			c-1.5,0.6-2.9,1.5-4,2.5c-1.2,1-2.1,2.2-2.8,3.6c-0.7,1.3-1,2.7-1,4.2c0,1.1,0.5,1.9,1.5,2.4c1,0.5,2.2,0.8,3.7,0.8
			c2.4,0,5.7-0.8,9.8-2.5c4.1-1.7,8.5-4.2,13.2-7.5c0.4-0.3,0.8-0.3,1-0.2C123,47.3,122.9,47.5,122.4,47.7z"/>
		<path class="st7" d="M201.1,8c0,0.8-0.1,1.4-0.2,1.8c-0.1,0.4-0.3,0.7-0.4,0.8c-0.1,0.2-0.3,0.2-0.4,0.1s-0.2-0.2-0.2-0.3
			c0-0.4-0.2-1.1-0.5-1.7c-0.3-0.6-0.9-1.2-1.8-1.8c-0.9-0.6-2.2-1.1-3.8-1.5c-1.6-0.4-3.8-0.6-6.4-0.6c-2.3,0-4.6,0.2-7,0.6
			c-2.4,0.4-5,1.1-7.7,2.2c-2.8,1.1-5.7,2.6-8.9,4.5c-3.2,1.9-6.6,4.4-10.3,7.5c-3.7,3.1-7.8,6.8-12.2,11.2
			c-4.4,4.4-9.2,9.6-14.4,15.6c0.6-0.3,1.6-0.8,2.9-1.4c1.3-0.6,2.7-1.2,4.3-1.8c1.6-0.6,3.1-1.1,4.6-1.6c1.5-0.5,2.7-0.7,3.8-0.7
			c0.8,0,1.2,0.2,1.2,0.5c0,0.3-0.4,0.8-1.2,1.4c-0.7,0.6-1.6,1.4-2.7,2.5c-1.1,1.1-2.2,2.2-3.3,3.4c-1.1,1.2-2,2.4-2.8,3.6
			c-0.8,1.2-1.2,2.1-1.2,2.8c0,0.8,0.3,1.4,1,1.8c0.7,0.4,1.6,0.6,2.9,0.6c2,0,4.8-0.8,8.5-2.3c3.6-1.5,7.8-4.1,12.5-7.8
			c0.2-0.1,0.3-0.2,0.5-0.2c0.2,0,0.3,0.1,0.3,0.3c-1.6,1.4-3.6,2.7-5.8,4.1s-4.5,2.6-6.8,3.7c-2.3,1.1-4.6,2-6.9,2.7
			c-2.3,0.7-4.4,1-6.3,1c-1.5,0-2.6-0.2-3.5-0.7c-0.9-0.5-1.3-1.2-1.3-2c0-0.8,0.5-1.9,1.4-3.1c1-1.3,2-2.6,3.2-3.9
			c1.2-1.3,2.2-2.5,3.2-3.6c1-1.1,1.4-1.9,1.4-2.3c0-0.3-0.1-0.4-0.4-0.4c-0.8,0-2.2,0.4-4.2,1.3c-2,0.9-4.6,2.5-7.6,4.9
			c-1.2,1.3-2.5,2.6-3.8,4s-2.4,2.6-3.4,3.7c-0.7,0.8-1.3,1.2-2,1.2c-0.4,0-1-0.1-1.7-0.2c-0.7-0.1-1-0.4-1-0.7
			c0-0.3,0.1-0.5,0.4-0.8c3.6-3.9,7.2-7.5,10.7-10.9c3.5-3.4,7-6.8,10.5-10.1c4.2-3.8,8.5-7.7,12.9-11.7c4.5-4,9-7.6,13.7-10.8
			c4.7-3.3,9.4-5.9,14.2-8C180,3,184.8,2,189.6,2c1.2,0,2.5,0.1,3.8,0.3c1.3,0.2,2.5,0.5,3.7,0.9s2.1,1,2.9,1.7
			C200.7,5.6,201.1,6.8,201.1,8z"/>
		<path class="st7" d="M181.1,48c-2.1,1.6-4.5,3.1-7.2,4.5c-2.7,1.4-5.2,2.6-7.4,3.4c-1.7,0.7-3.5,1.2-5.3,1.5
			c-1.8,0.4-3.5,0.5-4.9,0.5c-0.5,0-1.1,0-1.8-0.1c-0.7,0-1.3-0.2-1.9-0.4c-0.6-0.2-1-0.5-1.4-0.8c-0.4-0.3-0.6-0.8-0.6-1.3
			c0-0.7,0.4-1.6,1.3-2.7c0.9-1.1,1.9-2.3,3.1-3.5s2.3-2.4,3.5-3.5c1.2-1.1,2.1-2,2.8-2.5c0.4-0.4,1.2-0.8,2.3-1
			c1.1-0.3,1.8-0.4,2.1-0.4c0.4,0,0.7,0.1,0.7,0.2c0,0.1-0.1,0.3-0.2,0.5s-0.3,0.4-0.5,0.5c-1.1,1-2.3,2.1-3.4,3.4
			c-1.2,1.2-2.2,2.4-3.2,3.5c-1,1.1-1.7,2.2-2.3,3.2c-0.6,1-0.8,1.7-0.8,2.3c0,0.6,0.3,1.1,0.8,1.3c0.6,0.3,1.3,0.4,2.3,0.4
			c1.7,0,3.6-0.3,5.7-1s4.1-1.5,6.2-2.5c2-1,3.9-2,5.7-3.1c1.7-1.1,3.1-2,4-2.7c0.4-0.3,0.7-0.3,0.7-0.2
			C181.3,47.5,181.2,47.7,181.1,48z M174.4,31.5c0,0.6-1.4,0.9-2.1,1.8c-1.2,1.5-2.2,5.4-3.3,5.4c-1,0-1.7-0.6-1.7-1.2
			c0-0.7,0.5-1.2,1.2-2c2.7-3.2,3-5,4.2-5C173.9,30.5,174.4,30.8,174.4,31.5z"/>
		<path class="st7" d="M215.3,48.1c-1.6,1.3-3.4,2.6-5.4,3.9c-2,1.3-4.2,2.5-6.5,3.5c-2.3,1-4.6,1.9-7,2.5c-2.4,0.7-4.7,1-7,1
			c-1,0-2-0.1-2.9-0.3c-0.9-0.2-1.3-0.6-1.3-1.3c0-0.7,0.4-1.6,1.3-2.7c0.9-1.1,1.9-2.2,3.1-3.5c1.2-1.2,2.4-2.5,3.6-3.7
			c1.3-1.3,2.3-2.4,3.1-3.5c0.2-0.3,0.2-0.5,0.1-0.6c-0.1-0.2-0.4-0.2-0.8,0c-1,0.4-2.1,0.8-3.4,1.4s-2.6,1.3-4,1.9
			c-1.3,0.7-2.6,1.4-3.9,2.1c-1.3,0.7-2.3,1.3-3.1,1.9c-1.4,1.3-2.6,2.4-3.6,3.5c-1,1.1-2.2,2.3-3.7,3.6c-0.3,0.3-0.6,0.5-0.8,0.5
			c-0.4,0-0.8-0.3-1.1-0.8c-0.3-0.6-0.5-0.9-0.5-1.1c0-0.5,0.5-1.1,1.6-1.9c1.1-0.8,2.3-1.7,3.6-2.6c1.4-1.6,2.8-3.3,4.3-5.1
			c1.5-1.8,2.7-3.4,3.8-4.8c0.3-0.3,0.7-0.4,1.2-0.4c0.5,0,1,0.1,1.4,0.4c0.4,0.3,0.6,0.5,0.6,0.8c0,0.2-0.6,0.9-1.9,2.1
			c-1.3,1.2-2.5,2.6-3.7,4.2c1.6-0.9,3.4-1.8,5.4-2.7s3.8-1.9,5.6-2.7c1.8-0.8,3.3-1.5,4.7-2c1.3-0.5,2.3-0.8,2.8-0.8
			c0.3,0,0.7,0.1,1,0.3c0.3,0.2,0.5,0.4,0.5,0.6s-0.2,0.5-0.7,0.9c-1,0.8-2.1,1.9-3.5,3.1c-1.4,1.3-2.7,2.6-4,3.9
			c-1.3,1.3-2.3,2.6-3.2,3.9c-0.9,1.2-1.3,2.2-1.3,2.9c0,0.6,0.2,1,0.7,1.3c0.4,0.2,1.1,0.3,2.1,0.3c1.5,0,3.2-0.3,5.2-1
			c2-0.7,4.1-1.5,6.2-2.5c2.1-1,4.1-2.1,6-3.3c1.9-1.2,3.5-2.4,4.7-3.5c0.2-0.2,0.4-0.2,0.8-0.1C215.7,47.6,215.7,47.8,215.3,48.1z"
			/>
		<path class="st7" d="M241.1,48.9c-1.5,1.1-3.2,2.2-5.3,3.3c-2,1.1-4.2,2.2-6.6,3.1c-2.4,0.9-4.9,1.7-7.4,2.3
			c-2.6,0.6-5.1,0.9-7.6,0.9c-4.1,0-6.1-1.1-6.1-3.2c0-1.4,0.6-3,1.9-4.6c1.3-1.7,2.9-3.2,4.9-4.6c2-1.4,4.2-2.6,6.6-3.5
			c2.4-0.9,4.7-1.4,6.8-1.4c1.2,0,2.1,0.1,2.5,0.4c0.5,0.3,0.7,0.6,0.7,1c0,0.6-0.3,1.3-1,2c-0.7,0.7-1.6,1.4-2.9,2
			c-1.3,0.6-2.9,1.2-4.9,1.6c-2,0.4-4.4,0.6-7.2,0.6c-0.4,0.5-0.9,1.2-1.4,2.2c-0.5,1-0.8,2-0.8,3c0,2.1,1.6,3.1,4.8,3.1
			c2,0,4-0.3,6.2-0.8c2.1-0.6,4.2-1.3,6.2-2.1c2-0.8,3.8-1.8,5.5-2.7c1.7-1,3.1-1.9,4.2-2.8c0.2-0.1,0.4-0.1,0.6-0.1
			C241,48.6,241.1,48.7,241.1,48.9z M227.5,42.9c0-0.7-0.6-1-1.7-1c-0.9,0-1.8,0.2-2.7,0.6c-0.9,0.4-1.8,0.9-2.7,1.5
			c-0.9,0.6-1.7,1.3-2.5,2c-0.8,0.7-1.4,1.4-2,2.1c0.2,0.1,0.5,0.1,0.9,0.1c0.4,0,0.8,0,1,0c2.5,0,4.7-0.5,6.6-1.6
			C226.5,45.6,227.5,44.4,227.5,42.9z"/>
	</g>
</g>
</svg>
