<?xml version="1.0" encoding="utf-8"?>
<!-- Generator: Adobe Illustrator 24.1.3, SVG Export Plug-In . SVG Version: 6.00 Build 0)  -->
<svg version="1.1" id="Layer_1" xmlns="http://www.w3.org/2000/svg" xmlns:xlink="http://www.w3.org/1999/xlink" x="0px" y="0px"
	 viewBox="0 0 39.5 32" style="enable-background:new 0 0 39.5 32;" xml:space="preserve">
<style type="text/css">
	.st0{fill:#666666;}
</style>
<g transform="translate(-62.673426,-225.80666)">
	<path class="st0" d="M63.3,225.8c-0.3,0-0.5,0-0.6,0.2c-0.2,0.6,2.4,2.3,6.1,3.9v26.7c0,0.3,0.3,0.6,0.6,0.6s0.6-0.3,0.6-0.6v-26.2
		c3.2,1.3,5.8,1.9,6.1,1.4c0.2-0.6-2.4-2.3-6.1-3.9V227c0-0.3-0.3-0.6-0.6-0.6c-0.3,0-0.6,0.3-0.6,0.6v0.4
		C66.3,226.4,64.3,225.8,63.3,225.8L63.3,225.8z M101.5,225.8c-1,0-3,0.6-5.5,1.6V227c0-0.3-0.3-0.6-0.6-0.6c-0.3,0-0.6,0.3-0.6,0.6
		v0.9c-3.6,1.6-6.3,3.3-6,3.9c0.2,0.5,2.8-0.1,6-1.4v26.2c0,0.3,0.3,0.6,0.6,0.6s0.6-0.3,0.6-0.6V230c3.6-1.6,6.3-3.4,6.1-3.9
		C102,225.9,101.8,225.8,101.5,225.8L101.5,225.8z M87.5,231.6c-0.9,0.2-1.9,0.5-2.8,1c-0.3,0.1-0.4,0.4-0.3,0.7l0.8,4
		c-0.8-0.2-1.8-0.3-2.7-0.3s-1.9,0.1-2.7,0.3l0.8-4c0.1-0.3-0.1-0.6-0.3-0.7c-0.9-0.4-1.8-0.7-2.8-1c0,0.2,0,0.5-0.1,0.8
		c-0.3,0.7-1,0.9-1.7,0.9c-0.7,0-1.4-0.2-2-0.3c-0.2-0.1-0.5-0.1-0.8-0.2l-1,4.5c0,0.3,0.1,0.6,0.4,0.7c1.2,0.5,2.6,0.9,3.9,1.1
		c-2.4,1.9-4,4.8-4,8.2c0,2.7,1,5.1,2.7,7l-1.6,1.9c-0.2,0.2-0.2,0.6,0.1,0.9c0.1,0.1,0.2,0.1,0.4,0.1c0.2,0,0.3,0,0.5-0.2l1.5-1.8
		c1.8,1.6,4.2,2.5,6.8,2.5s5-0.9,6.8-2.5l1.5,1.9c0.1,0.1,0.3,0.2,0.5,0.2c0.1,0,0.3,0,0.4-0.1c0.2-0.2,0.3-0.6,0.1-0.9l-1.6-2
		c1.6-1.8,2.7-4.2,2.7-6.9c0-3.3-1.6-6.3-4-8.2c1.4-0.2,2.7-0.6,4-1.1c0.3-0.1,0.4-0.4,0.4-0.7l-0.9-4.4c-0.3,0.1-0.5,0.1-0.8,0.2
		c-0.5,0.1-1.3,0.3-2,0.3c-0.7,0-1.4-0.2-1.7-0.9C87.5,232.1,87.4,231.8,87.5,231.6L87.5,231.6z M82.4,238.2l3,0.5
		c0.4,0.1,0.9,0.3,1.3,0.6c2.8,1.5,4.7,4.5,4.7,8c0,5-4.1,9.1-9.1,9.1c-5,0-9.1-4.1-9.1-9.1c0-3.4,1.9-6.4,4.7-8
		c0.4-0.2,0.9-0.4,1.4-0.6C80.3,238.4,81.3,238.2,82.4,238.2L82.4,238.2z M85,249.3c-1.1,0-2.1,0.9-2.1,2.1l0,0
		c0,1.1,0.9,2.1,2.1,2.1l0,0c1.1,0,2.1-0.9,2.1-2.1l0,0C87.1,250.2,86.2,249.3,85,249.3L85,249.3z"/>
</g>
</svg>
