<?xml version="1.0" encoding="utf-8"?>
<!-- Generator: Adobe Illustrator 24.1.3, SVG Export Plug-In . SVG Version: 6.00 Build 0)  -->
<svg version="1.1" id="Layer_1" xmlns="http://www.w3.org/2000/svg" xmlns:xlink="http://www.w3.org/1999/xlink" x="0px" y="0px"
	 viewBox="0 0 19.8 32" style="enable-background:new 0 0 19.8 32;" xml:space="preserve">
<style type="text/css">
	.st0{fill:#FF88E3;}
</style>
<path class="st0" d="M0.4,7.2V8h0.1l0.3,1h0.3v18.5H0.9l-0.2,0.9H0.5V29H0.1v3h9v-3l10.1-18.7c0.8-0.6,0.4-1.9,0.4-1.9
	c-1.5-2.1-4.2,1-4.2,1s-3.2,2.7-4.5-3.6C10,0.6,5.4,0.4,3.7,0.6V0H0l0.6,7.2H0.4z M18,9.8c0.1,0.2,0.2,0.4,0.3,0.6l-1.8,2.5v-1.6
	C17,10.8,17.5,10.3,18,9.8z M16.3,11.4v1.7l0.2-0.2l-0.8,1.2v-2.2C15.9,11.7,16.1,11.6,16.3,11.4z M15.5,12v2.3l0.2-0.2l-0.9,1.2
	v-2.9l0,0C15,12.3,15.2,12.1,15.5,12z M14.6,12.4L14.6,12.4v3.1l-0.7,1v-3.9l0,0C14.1,12.6,14.3,12.5,14.6,12.4z M13.7,12.7v4.1
	l-0.7,1v-5.1C13.2,12.7,13.5,12.7,13.7,12.7L13.7,12.7z M12.8,12.7V18l-0.7,1v-6.5l0,0C12.3,12.6,12.6,12.7,12.8,12.7L12.8,12.7z
	 M11.9,12.4L11.9,12.4v6.8l-0.7,1V12l0,0C11.5,12.1,11.7,12.3,11.9,12.4z M10.5,11.2c0.2,0.2,0.4,0.5,0.6,0.7v8.7l-0.7,1V11
	L10.5,11.2z M10.2,10.7L10.2,10.7v11l-0.8,1.1l0.1-0.1V9c0.2,0.4,0.3,0.8,0.4,1C10,10.2,10.1,10.5,10.2,10.7z M9.3,22.9l-0.7,1V7.2
	c0.3,0.4,0.5,0.9,0.7,1.3V22.9z M8.6,24l-0.8,1.2V6C8,6.3,8.2,6.6,8.4,6.9v17.3L8.6,24z M7.7,25.2l-0.9,1.3v-0.1v-21
	c0.3,0.1,0.5,0.3,0.7,0.5v19.5L7.7,25.2z M6.9,5.4L6.7,5.2L6.9,5.4z M6.7,26.6l-0.7,1V5c0.2,0,0.5,0.1,0.7,0.2V26.6z M5.8,5v22.8
	L5,29l0,0l0.1-0.2V5.1C5.3,5,5.6,5,5.8,5z M4.9,5.2V29H4.2V5.5C4.4,5.4,4.7,5.2,4.9,5.2z M4.2,5.5L4,5.6L4.2,5.5z M2.6,9h0.3l0.2-1
	h0.2V7.2H3.1l0.1-0.9C3.5,6.1,3.7,5.8,4,5.6V29H3.3v-0.6H3.2L3,27.5H2.6V9z"/>
</svg>
