<?xml version="1.0" encoding="utf-8"?>
<!-- Generator: Adobe Illustrator 24.1.3, SVG Export Plug-In . SVG Version: 6.00 Build 0)  -->
<svg version="1.1" id="Layer_1" xmlns="http://www.w3.org/2000/svg" xmlns:xlink="http://www.w3.org/1999/xlink" x="0px" y="0px"
	 viewBox="0 0 47.2 32" style="enable-background:new 0 0 47.2 32;" xml:space="preserve">
<style type="text/css">
	.st0{fill:#008dff;}
</style>
<desc>Created with Sketch.</desc>
<g id="Page-1">
	<g id="Marimba">
		<g transform="translate(14.000000, 19.500000)">
			<path id="Fill-1" class="st0" d="M-11.2-18.1v29.2c0,0.8,0.6,1.4,1.4,1.4h5.2c0.8,0,1.4-0.6,1.4-1.4v-29.2c0-0.8-0.6-1.4-1.4-1.4
				h-5.2C-10.6-19.5-11.2-18.9-11.2-18.1z"/>
			<path id="Fill-2" class="st0" d="M0-8.9h-12.6c-0.8,0-1.4,0.6-1.4,1.4s0.6,1.4,1.4,1.4H0v5.2h-12.6c-0.6,0-1.2,0.6-1.2,1.2
				c0,0.8,0.6,1.4,1.4,1.4H0v8c0,0.8,0.6,1.4,1.4,1.4h5.2c0.8,0,1.4-0.6,1.4-1.4v-26.5c0-0.8-0.6-1.4-1.4-1.4H1.4
				c-0.8,0-1.4,0.6-1.4,1.4V-8.9z"/>
			<path id="Fill-3" class="st0" d="M11.2-0.9v-5.2H8c-0.8,0-1.4-0.6-1.4-1.4S7.2-8.9,8-8.9h3.4v-6.6c0-0.8,0.6-1.4,1.4-1.4H18
				c0.8,0,1.4,0.6,1.4,1.4V8.3c0,0.8-0.6,1.4-1.4,1.4h-5.4c-0.8,0-1.4-0.6-1.4-1.4V1.7H8c-0.8,0-1.4-0.6-1.4-1.4S7.2-1,8-1L11.2-0.9
				z"/>
			<path id="Fill-4" class="st0" d="M22.6-0.9v-5.2h-3.4c-0.8,0-1.4-0.6-1.4-1.4s0.6-1.4,1.4-1.4h3.4v-5.2c0-0.8,0.6-1.4,1.4-1.4
				h5.2c0.8,0,1.4,0.6,1.4,1.4V7.1c0,0.8-0.6,1.4-1.4,1.4H24c-0.8,0-1.4-0.6-1.4-1.4V1.9h-3.4C18.5,1.7,18,1.1,18,0.3
				c0-0.6,0.5-1.2,1.2-1.2C19.2-0.9,22.6-0.9,22.6-0.9z"/>
			<path id="Fill-4_1_" class="st0" d="M28.5-0.9v-5.2h3.4c0.8,0,1.4-0.6,1.4-1.4s-0.6-1.4-1.4-1.4h-3.4V1.7h3.4
				c0.8,0,1.4-0.6,1.4-1.4S32.6-1,31.8-1L28.5-0.9z"/>
		</g>
	</g>
</g>
</svg>
