<?xml version="1.0" encoding="utf-8"?>
<!-- Generator: Adobe Illustrator 24.1.3, SVG Export Plug-In . SVG Version: 6.00 Build 0)  -->
<svg version="1.1" id="Layer_1" xmlns="http://www.w3.org/2000/svg" xmlns:xlink="http://www.w3.org/1999/xlink" x="0px" y="0px"
	 viewBox="0 0 14.1 32" style="enable-background:new 0 0 14.1 32;" xml:space="preserve">
<style type="text/css">
	.st0{fill:#383842;}
</style>
<g>
	<path class="st0" d="M4.4,26.5c0.1-0.4,0-0.7,0-1c0-0.2-0.1-0.5-0.1-0.8l0-0.1l0-0.5l0.5,0.1l0.9,0.2l0.5-1.8l-0.8-0.2L5,22.4
		L5.1,22l0.1-0.4l0.1-0.4l0.4,0.1l0.8,0.2l1-3.6l-0.6-0.2l-0.4-0.1l0.1-0.4L8.4,11c-0.2,0.1-0.4,0.1-0.6,0.2
		c-1.8,0.6-3.9,1.4-4.1,2.8c0,0.1-0.1,0.3-0.2,0.5c0.4,0.2,1.3,0.9,0.8,2.6l-0.3,1.2c-0.5,1.9-1.9,1.9-2.5,1.7c0,0.2,0,0.5-0.1,0.6
		c-1,1.1-1.8,3.1-1.3,4.9c0.4,1.5,1.7,2.6,3.7,3.3c0-0.2,0.1-0.5,0.2-0.9C4.2,27.5,4.3,27,4.4,26.5z M5,19.8c0-0.1,0.1-0.1,0.1-0.2
		c0,0,0.1-0.1,0.1-0.1c0,0,0,0-0.1,0c-0.1,0-0.4-0.1-0.8,1.1c-0.3,0.9-0.7,2-1.5,1.7c-0.5-0.1-0.5-0.7-0.5-1l0,0c0,0,0,0,0-0.1
		c0.1-0.2,0.2-0.3,0.4-0.2c0.2,0.1,0.3,0.2,0.2,0.4c0,0.1-0.2,0.2-0.3,0.3c0,0.1,0.1,0.2,0.2,0.2c0.2,0,0.6,0.2,1-1.4
		c0.2-0.7,0.5-1.6,1.3-1.4c0.4,0.1,0.5,0.6,0.4,0.8l0,0c0,0,0,0,0,0.1c-0.1,0.2-0.2,0.3-0.4,0.2C5.1,20.2,5,20,5,19.8z M11.7,23.4
		c0-0.2,0.1-0.4,0.2-0.6c-0.3-0.1-0.6-0.3-0.9-0.6c-0.5-0.5-0.6-1.3-0.3-2.2l0.3-1.2c0.4-1.7,1.5-1.8,2-1.8c0-0.2,0-0.4,0.1-0.5
		c0.7-1.3-0.8-3.1-2-4.5c-0.2-0.2-0.3-0.3-0.4-0.5l-1.6,6.3l-0.1,0.4l-0.4-0.1L7.8,18l-1,3.6l0.8,0.2L8,22l-0.1,0.4l-0.1,0.4
		l-0.1,0.4L7.3,23l-0.8-0.2L6,24.6l0.9,0.2L7.4,25l-0.2,0.4l0,0.1c-0.1,0.3-0.3,0.5-0.5,0.7c-0.2,0.2-0.4,0.5-0.5,0.8
		c-0.2,0.4-0.3,1-0.5,1.4c-0.1,0.3-0.2,0.6-0.3,0.8c2.1,0.4,3.8,0.1,5-1C11.7,27,12,24.9,11.7,23.4z M10.4,23.6
		c-0.1,0.3-0.4,0.7-0.9,0.6c-0.9-0.2-0.7-1.3-0.4-2.3c0.3-1.2,0-1.3-0.1-1.4c0,0,0,0-0.1,0c0,0,0,0.1,0,0.1c0,0.1,0,0.2,0,0.2
		c-0.1,0.2-0.2,0.3-0.4,0.2c-0.2-0.1-0.3-0.2-0.2-0.4c0,0,0,0,0,0l0,0c0.1-0.3,0.3-0.6,0.8-0.5c0.7,0.2,0.6,1.2,0.4,1.9
		c-0.4,1.6,0,1.7,0.2,1.8c0.1,0,0.2,0,0.3-0.1c-0.1-0.1-0.2-0.2-0.1-0.4c0.1-0.2,0.2-0.3,0.4-0.2C10.4,23.1,10.5,23.3,10.4,23.6
		C10.4,23.5,10.4,23.5,10.4,23.6L10.4,23.6L10.4,23.6z M4.3,31L4.6,31l-0.3,1l-0.9-0.2l0.3-1L4,30.9L4.5,29l0.3,0.1L4.3,31z M10.8,4
		l0.4,0.1L7.6,17.6L7,17.4L10.8,4L10.8,4z M5.6,21.7l0.8,0.2l-0.1,0.4l-0.8-0.2L5.6,21.7z M7.4,22.7l-0.8-0.2L6.8,22l0.8,0.2
		L7.4,22.7z M4.3,28.9c0.1-0.6,0.4-1.6,0.5-2.3c0.1-0.8-0.1-1.3-0.1-1.9l0-0.1l2.1,0.6l0,0.1c-0.3,0.6-0.7,0.8-1,1.5
		c-0.3,0.7-0.6,1.7-0.8,2.3L4.3,28.9z M11,3.3l0.3-1l-0.7-0.2c-0.1,0.3-0.2,0.3-0.3,0.3c-0.2-0.1-0.6-0.3-0.5-0.7
		c0.1-0.3,0.5-0.4,0.8-0.3c0.1,0,0.2,0,0.1,0.4L11.5,2l0.3-0.9l-0.2-0.1l0.1-0.3l-0.3-0.1l0.2-0.6l0.3,0.1L11.9,0l1.2,0.3l0,0.2
		l0.3,0.1l-0.1,0.6L13,1.2l-0.1,0.3l-0.2-0.1l-0.1,0.4l0.7,0.2c0.1-0.3,0.2-0.3,0.3-0.3c0.2,0.1,0.6,0.3,0.5,0.7
		c-0.1,0.3-0.6,0.4-0.8,0.3c-0.1,0-0.2,0-0.1-0.4l-0.7-0.2l-0.3,1l0.6,0.2C13,3,13.1,3,13.2,3c0.2,0.1,0.6,0.3,0.5,0.7
		C13.6,4,13.1,4.1,12.9,4c-0.1,0-0.2,0-0.1-0.4l-0.6-0.2L12,4.3l0,0L8.5,17.8l-0.6-0.2l3.7-13.5L10.8,4l0.1-0.3l-0.6-0.2
		c-0.1,0.3-0.2,0.3-0.3,0.3C9.8,3.7,9.5,3.4,9.6,3.1c0.1-0.3,0.5-0.4,0.8-0.3c0.1,0,0.2,0,0.1,0.4L11,3.3z"/>
</g>
</svg>
