<?xml version="1.0" encoding="utf-8"?>
<!-- Generator: Adobe Illustrator 24.1.3, SVG Export Plug-In . SVG Version: 6.00 Build 0)  -->
<svg version="1.1" id="Layer_1" xmlns="http://www.w3.org/2000/svg" xmlns:xlink="http://www.w3.org/1999/xlink" x="0px" y="0px"
	 viewBox="0 0 44.8 32" style="enable-background:new 0 0 44.8 32;" xml:space="preserve">
<style type="text/css">
	.st0{fill:#A0A0B4;}
</style>
<g>
	<path class="st0" d="M28.5,0.2c-0.4-0.3-1-0.2-1.5,0c-1.6,1.1-3.4,1.7-4.2,1.9c-0.2,0-0.5,0-0.7,0c-0.7-0.2-2.6-0.8-4.2-1.9
		c-0.4-0.3-1-0.3-1.5,0C13.8,1.7,5.5,7.1,0.1,14.4C0,14.6,0,14.8,0.1,15C1,16.8,5.9,25.4,14.4,30c5,2.7,11,2.7,16,0
		c8.5-4.6,13.4-13.1,14.3-14.9c0.1-0.2,0.1-0.4,0-0.6C39.3,7.1,31,1.7,28.5,0.2z M41.2,14.8c-3.5,3.4-7.3,5.9-10.6,7.7
		c-5.1,2.7-11.2,2.7-16.2,0c-3.3-1.8-7.1-4.3-10.6-7.7c-0.2-0.2-0.2-0.6,0-0.9c1.6-1.3,6.9-5.2,13.6-6.5c0.2,0,0.4,0,0.6,0
		c0.8,0.2,3,0.9,4.4,0.9c1.4,0,3.6-0.6,4.4-0.9c0.2,0,0.4-0.1,0.6,0c6.7,1.2,12,5.2,13.6,6.5C41.4,14.1,41.4,14.6,41.2,14.8z"/>
	<path class="st0" d="M24.5,10.6L24.5,10.6c-2.1,0.8-1,3.4-0.5,4.4c0.2,0.4,0.3,0.8,0.3,1.2c0.1,1.9-1.6,2.1-1.8,2.1c0,0,0,0,0,0
		c-0.2,0-2-0.1-1.8-2.1c0-0.4,0.1-0.8,0.3-1.2c0.5-0.9,1.5-3.5-0.5-4.4h0c-0.5-0.1-5.9-1.1-9.2,7.2c-0.1,0.3,0.1,0.6,0.4,0.5
		c2.1-0.4,8.2-1.3,10.5,3c0.1,0.3,0.5,0.3,0.7,0c2.3-4.3,8.5-3.4,10.5-3c0.3,0,0.5-0.2,0.4-0.5C30.4,9.4,25,10.5,24.5,10.6z"/>
</g>
</svg>
