<?xml version="1.0" encoding="utf-8"?>
<!-- Generator: Adobe Illustrator 24.1.3, SVG Export Plug-In . SVG Version: 6.00 Build 0)  -->
<svg version="1.1" id="Layer_1" xmlns="http://www.w3.org/2000/svg" xmlns:xlink="http://www.w3.org/1999/xlink" x="0px" y="0px"
	 viewBox="0 0 42.2 32" style="enable-background:new 0 0 42.2 32;" xml:space="preserve">
<style type="text/css">
	.st0{fill:#666666;}
</style>
<path class="st0" d="M40.8,0H1.5C0.7,0,0,0.7,0,1.5v29.1C0,31.3,0.7,32,1.5,32h39.3c0.8,0,1.5-0.7,1.5-1.5V1.5
	C42.2,0.7,41.6,0,40.8,0z M39.3,2.6c0.5,0,1,0.4,1,1s-0.4,1-1,1c-0.5,0-1-0.4-1-1S38.8,2.6,39.3,2.6z M32.7,2.6c0.5,0,1,0.4,1,1
	s-0.4,1-1,1s-1-0.4-1-1S32.2,2.6,32.7,2.6z M1.9,2h27.8v3.1H1.9V2z M2,18v-5h5v5H2z M7,19v5H2v-5H7z M2,12V7h5v5H2z M7,30H2v-5h5V30
	z M13,30H8v-5h5V30z M8,24v-5h5v5H8z M13,18H8v-5h5V18z M13,12H8V7h5V12z M19,30h-5v-5h5V30z M19,24h-5v-5h5V24z M19,18h-5v-5h5V18z
	 M19,12h-5V7h5V12z M25,30h-5v-5h5V30z M25,24h-5v-5h5V24z M25,18h-5v-5h5V18z M25,12h-5V7h5V12z M30.4,27c-0.5,0-1-0.4-1-1
	c0-0.5,0.4-1,1-1c0.5,0,1,0.4,1,1C31.4,26.6,31,27,30.4,27z M30.4,23.4c-0.5,0-1-0.4-1-1c0-0.5,0.4-1,1-1c0.5,0,1,0.4,1,1
	C31.4,23,31,23.4,30.4,23.4z M30.5,16c-1.8,0-3.2-1.4-3.2-3.2c0-1.8,1.4-3.2,3.2-3.2c1.8,0,3.2,1.4,3.2,3.2
	C33.7,14.6,32.3,16,30.5,16z M33.9,27c-0.5,0-1-0.4-1-1c0-0.5,0.4-1,1-1c0.5,0,1,0.4,1,1C34.8,26.6,34.4,27,33.9,27z M33.9,23.4
	c-0.5,0-1-0.4-1-1c0-0.5,0.4-1,1-1c0.5,0,1,0.4,1,1C34.8,23,34.4,23.4,33.9,23.4z M35.2,3.6c0-0.5,0.4-1,1-1s1,0.4,1,1s-0.4,1-1,1
	S35.2,4.1,35.2,3.6z M35.5,11c0-0.2,0.1-0.3,0.3-0.3h0.5V9.5h0.6v1.2h0.5c0.2,0,0.3,0.1,0.3,0.3c0,0.2-0.1,0.3-0.3,0.3h-0.5v6.2
	h-0.6v-6.2h-0.5C35.6,11.3,35.5,11.2,35.5,11z M37,27c-0.5,0-1-0.4-1-1c0-0.5,0.4-1,1-1c0.5,0,1,0.4,1,1C38,26.6,37.6,27,37,27z
	 M37,23.4c-0.5,0-1-0.4-1-1c0-0.5,0.4-1,1-1c0.5,0,1,0.4,1,1C38,23,37.6,23.4,37,23.4z M40.1,16h-0.5v1.5h-0.6V16h-0.5
	c-0.2,0-0.3-0.1-0.3-0.3s0.1-0.3,0.3-0.3h0.5V9.5h0.6v5.9h0.5c0.2,0,0.3,0.1,0.3,0.3S40.2,16,40.1,16z"/>
</svg>
