<?xml version="1.0" encoding="utf-8"?>
<!-- Generator: Adobe Illustrator 24.1.3, SVG Export Plug-In . SVG Version: 6.00 Build 0)  -->
<svg version="1.1" id="Layer_1" xmlns="http://www.w3.org/2000/svg" xmlns:xlink="http://www.w3.org/1999/xlink" x="0px" y="0px"
	 viewBox="0 0 34.6 32" style="enable-background:new 0 0 34.6 32;" xml:space="preserve">
<style type="text/css">
	.st0{fill:#383842;}
</style>
<g>
	<path class="st0" d="M34.6,1.9v4.6c0,1.1-0.9,1.9-1.9,1.9h-0.8v2.9h1.1c0.5,0,0.9,0.4,0.9,0.9v8.6c0,0.5-0.4,0.9-0.9,0.9H30
		c-0.5,0-0.9-0.4-0.9-0.9v-8.6c0-0.5,0.4-0.9,0.9-0.9h1.1V8.4h-4.9v2.9h1.1c0.5,0,0.9,0.4,0.9,0.9v10.6c0,0.5-0.4,0.9-0.9,0.9h-2.9
		c-0.5,0-0.9-0.4-0.9-0.9V12.2c0-0.5,0.4-0.9,0.9-0.9h1.1V8.4h-4.9v2.9h1.1c0.5,0,0.9,0.4,0.9,0.9v12.7c0,0.5-0.4,0.9-0.9,0.9h-2.9
		c-0.5,0-0.9-0.4-0.9-0.9V12.2c0-0.5,0.4-0.9,0.9-0.9h1.1V8.4h-4.9v2.9h1.1c0.5,0,0.9,0.4,0.9,0.9V27c0,0.5-0.4,0.9-0.9,0.9H13
		c-0.5,0-0.9-0.4-0.9-0.9V12.2c0-0.5,0.4-0.9,0.9-0.9h1.1V8.4H9.2v2.9h1.1c0.5,0,0.9,0.4,0.9,0.9V29c0,0.5-0.4,0.9-0.9,0.9H7.3
		c-0.5,0-0.9-0.4-0.9-0.9V12.2c0-0.5,0.4-0.9,0.9-0.9h1.1V8.4H3.5v2.9h1.1c0.5,0,0.9,0.4,0.9,0.9v18.9c0,0.5-0.4,0.9-0.9,0.9H1.7
		c-0.5,0-0.9-0.4-0.9-0.9V12.2c0-0.5,0.4-0.9,0.9-0.9h1.1V8.4H1.9C0.9,8.4,0,7.6,0,6.5V1.9C0,0.9,0.9,0,1.9,0h30.7
		C33.7,0,34.6,0.9,34.6,1.9z"/>
</g>
</svg>
