<?xml version="1.0" encoding="utf-8"?>
<!-- Generator: Adobe Illustrator 24.1.3, SVG Export Plug-In . SVG Version: 6.00 Build 0)  -->
<svg version="1.1" id="Layer_1" xmlns="http://www.w3.org/2000/svg" xmlns:xlink="http://www.w3.org/1999/xlink" x="0px" y="0px"
	 viewBox="0 0 29.5 32.1" style="enable-background:new 0 0 29.5 32.1;" xml:space="preserve">
<style type="text/css">
	.st0{fill:#383842;}
</style>
<desc>Created with Sketch.</desc>
<g id="Page-1_1_">
	<g id="Piano">
		<path id="Page-1" class="st0" d="M20.3,7.9C19,7.1,17.9,6,17.1,4.6s-2-2.6-3.4-3.4S10.7,0,9.1,0C4.1,0.1,0,4.2,0,9.2v4.5
			c0,0.7,0,1.1,0,1.2V30c0,1.1,0.9,2,2,2h25.4c1.1,0,2-0.9,2-2V19.4v-5.5c0-1.3-0.5-2.5-1.4-3.4s-2.1-1.4-3.4-1.4
			C23.1,9.1,21.6,8.6,20.3,7.9z M2.1,29.8v-8.2c0-0.2,0.1-0.3,0.3-0.3H5v4.5c0,0.6,0.5,1,1,1s1-0.5,1-1v-4.5h1.7v4.5
			c0,0.6,0.5,1,1,1c0.6,0,1-0.5,1-1v-4.5h4.1v4.5c0,0.6,0.5,1,1,1c0.6,0,1-0.5,1-1v-4.5h1.8v4.5c0,0.6,0.5,1,1,1c0.6,0,1-0.5,1-1
			v-4.5h1.7v4.5c0,0.6,0.5,1,1,1c0.6,0,1-0.5,1-1v-4.5h3v8.8H2.2C2.2,30.1,2.1,29.9,2.1,29.8L2.1,29.8z"/>
	</g>
</g>
</svg>
