<?xml version="1.0" encoding="utf-8"?>
<!-- Generator: Adobe Illustrator 24.1.3, SVG Export Plug-In . SVG Version: 6.00 Build 0)  -->
<svg version="1.1" id="Layer_1" xmlns="http://www.w3.org/2000/svg" xmlns:xlink="http://www.w3.org/1999/xlink" x="0px" y="0px"
	 viewBox="0 0 47.7 32" style="enable-background:new 0 0 47.7 32;" xml:space="preserve">
<style type="text/css">
	.st0{fill:#666666;}
</style>
<g>
	<path class="st0" d="M46.1,0H1.5C0.7,0,0,0.7,0,1.5v28.9C0,31.3,0.7,32,1.5,32h44.6c0.8,0,1.5-0.7,1.5-1.5V1.5
		C47.7,0.7,47,0,46.1,0z M40.7,12.2c0.5,0,0.8,0.4,0.8,0.9c0,0.5-0.4,0.8-0.9,0.8c-0.5,0-0.8-0.4-0.8-0.9
		C39.8,12.6,40.2,12.2,40.7,12.2z M39.8,8.8c0-0.5,0.4-0.8,0.9-0.8c0.5,0,0.8,0.4,0.8,0.9c0,0.5-0.4,0.8-0.9,0.8
		C40.1,9.7,39.8,9.3,39.8,8.8z M36.1,4.2H40c0.2-0.2,0.4-0.4,0.8-0.4c0.5,0,0.8,0.4,0.8,0.9s-0.4,0.8-0.9,0.8
		c-0.3,0-0.5-0.2-0.7-0.4h-3.8c-1.5,0-2.5,0.4-2.5,2.5c0,1.3,0,1.8,0,2.3c0,0.4,0,0.7,0,1.3c0,0.6,0.2,1.2,1.6,1.4
		c0.2-0.2,0.4-0.4,0.8-0.4c0.5,0,0.8,0.4,0.8,0.9c0,0.5-0.4,0.8-0.9,0.8c-0.3,0-0.5-0.2-0.7-0.4c-1.7-0.1-2.6-0.9-2.6-2.3
		c0-0.6,0-0.9,0-1.2c0-0.5,0-1,0-2.4C32.7,5.3,33.8,4.2,36.1,4.2z M36.9,8.9c0,0.5-0.4,0.8-0.9,0.8c-0.5,0-0.8-0.4-0.8-0.9
		c0-0.5,0.4-0.8,0.9-0.8C36.6,8,37,8.4,36.9,8.9z M28.4,13.9c-0.5,0-0.8-0.4-0.8-0.9c0-0.5,0.4-0.8,0.9-0.8c0.5,0,0.8,0.4,0.8,0.9
		C29.3,13.6,28.9,14,28.4,13.9z M28.5,3.8c0.5,0,0.8,0.4,0.8,0.9s-0.4,0.8-0.9,0.8c-0.5,0-0.8-0.4-0.8-0.9C27.6,4.1,28,3.8,28.5,3.8
		z M23.9,3.8c0.5,0,0.8,0.4,0.8,0.9s-0.4,0.8-0.9,0.8c-0.5,0-0.8-0.4-0.8-0.9C23,4.1,23.4,3.8,23.9,3.8z M23.9,8.3h3.9
		C27.9,8.1,28.2,8,28.5,8c0.5,0,0.8,0.4,0.8,0.9c0,0.5-0.4,0.8-0.9,0.8c-0.3,0-0.6-0.2-0.7-0.4h-3.8c-1.9,0-2.1,1-2.1,1.7
		c0,0.8,0.1,1.4,1.4,1.6c0.2-0.2,0.4-0.4,0.7-0.4c0.5,0,0.8,0.4,0.8,0.9c0,0.5-0.4,0.8-0.9,0.8c-0.3,0-0.6-0.2-0.7-0.4
		c-1.6-0.2-2.3-1-2.3-2.6C20.8,10,21.2,8.3,23.9,8.3z M10.8,5.6c0.1-1.1,1-2,2.2-1.9c1.1,0.1,2,1,1.9,2.2c-0.1,1.1-1,2-2.2,1.9
		C11.6,7.7,10.7,6.7,10.8,5.6z M10.8,12.1c0.1-1.1,1-2,2.2-1.9c1.1,0.1,2,1,1.9,2.2c-0.1,1.1-1,2-2.2,1.9
		C11.6,14.2,10.7,13.2,10.8,12.1z M4.4,5.6c0.1-1.1,1-2,2.2-1.9c1.1,0.1,2,1,1.9,2.2c-0.1,1.1-1,2-2.2,1.9C5.2,7.7,4.3,6.7,4.4,5.6z
		 M4.4,12.1c0.1-1.1,1-2,2.2-1.9c1.1,0.1,2,1,1.9,2.2c-0.1,1.1-1,2-2.2,1.9C5.2,14.2,4.3,13.2,4.4,12.1z M45.8,29.3
		c0,0.6-0.1,0.8-0.8,0.8H2.7c-0.6,0-0.8-0.1-0.8-0.8V19c0-0.6,0.1-0.8,0.8-0.8H5v7c0,0.2,0.2,0.4,0.4,0.4h1c0.2,0,0.4-0.2,0.4-0.4
		v-7h1.7v7c0,0.2,0.2,0.4,0.4,0.4h1c0.2,0,0.4-0.2,0.4-0.4v-7h3.4v7c0,0.2,0.2,0.4,0.4,0.4h1c0.2,0,0.4-0.2,0.4-0.4v-7H17v7
		c0,0.2,0.2,0.4,0.4,0.4h1c0.2,0,0.4-0.2,0.4-0.4v-7h1.7v7c0,0.2,0.2,0.4,0.4,0.4h1c0.2,0,0.4-0.2,0.4-0.4v-7h3.4v7
		c0,0.2,0.2,0.4,0.4,0.4h1c0.2,0,0.4-0.2,0.4-0.4v-7H29v7c0,0.2,0.2,0.4,0.4,0.4h1c0.2,0,0.4-0.2,0.4-0.4v-7h3.4v7
		c0,0.2,0.2,0.4,0.4,0.4h1c0.2,0,0.4-0.2,0.4-0.4v-7h1.7v7c0,0.2,0.2,0.4,0.4,0.4h1c0.2,0,0.4-0.2,0.4-0.4v-7H41v7
		c0,0.2,0.2,0.4,0.4,0.4h1c0.2,0,0.4-0.2,0.4-0.4v-7H45c0.6,0,0.8,0.1,0.8,0.8L45.8,29.3L45.8,29.3z"/>
</g>
</svg>
