<?xml version="1.0" encoding="utf-8"?>
<!-- Generator: Adobe Illustrator 24.1.3, SVG Export Plug-In . SVG Version: 6.00 Build 0)  -->
<svg version="1.1" id="Layer_1" xmlns="http://www.w3.org/2000/svg" xmlns:xlink="http://www.w3.org/1999/xlink" x="0px" y="0px"
	 viewBox="0 0 32 32" style="enable-background:new 0 0 32 32;" xml:space="preserve">
<style type="text/css">
	.st0{fill:#9A80C4;}
</style>
<g id="Shape_3_13_">
	<g>
		<path class="st0" d="M16,0C7.2,0,0,7.2,0,16s7.2,16,16,16c8.8,0,16-7.2,16-16S24.8,0,16,0z M22.5,20.3c0.3,0.3,0.3,0.8,0,1.1
			l-1.1,1.1c-0.3,0.3-0.8,0.3-1.1,0l-4.3-4.3l-4.3,4.3c-0.3,0.3-0.8,0.3-1.1,0l-1.1-1.1c-0.3-0.3-0.3-0.8,0-1.1l4.3-4.3l-4.3-4.3
			c-0.3-0.3-0.3-0.8,0-1.1l1.1-1.1c0.3-0.3,0.8-0.3,1.1,0l4.3,4.3l4.3-4.3c0.3-0.3,0.8-0.3,1.1,0l1.1,1.1c0.3,0.3,0.3,0.8,0,1.1
			l-4.3,4.3L22.5,20.3z"/>
	</g>
</g>
</svg>
